<svg width="95" height="24" viewBox="0 0 95 24" fill="none" xmlns="http://www.w3.org/2000/svg">
<path fill-rule="evenodd" clip-rule="evenodd" d="M4.76639 7.73318C2.95632 8.8432 2.33614 11.3016 3.38118 13.2242C3.96549 14.2992 4.87215 15.0248 5.84447 15.2799C4.50463 16.517 4.13254 18.6271 5.05339 20.3213C6.09843 22.2439 8.41296 22.9026 10.223 21.7926L19.2336 16.2669C21.0437 15.1569 21.6639 12.6984 20.6188 10.7758C20.0423 9.71522 19.0795 9.03924 18.0282 8.83262C19.4711 7.61429 19.896 5.42543 18.9466 3.67879C17.9016 1.75618 15.587 1.09745 13.777 2.20747L4.76639 7.73318Z" fill="#FF0000"/>
<path d="M10.1876 9.6202L15.3162 12.7653L10.1876 15.9104L10.1876 9.6202Z" fill="white"/>
<path d="M37.0391 14.5469C37.0391 14.3281 37.0052 14.1328 36.9375 13.9609C36.875 13.7839 36.7578 13.625 36.5859 13.4844C36.4193 13.3385 36.1823 13.1979 35.875 13.0625C35.5729 12.9219 35.1823 12.776 34.7031 12.625C34.1719 12.4583 33.6771 12.2708 33.2188 12.0625C32.7604 11.8542 32.3568 11.612 32.0078 11.3359C31.6641 11.0599 31.3958 10.7422 31.2031 10.3828C31.0104 10.0182 30.9141 9.59635 30.9141 9.11719C30.9141 8.64844 31.013 8.22135 31.2109 7.83594C31.4141 7.45052 31.7005 7.11979 32.0703 6.84375C32.4401 6.5625 32.875 6.34635 33.375 6.19531C33.8802 6.04427 34.4375 5.96875 35.0469 5.96875C35.8906 5.96875 36.6198 6.1224 37.2344 6.42969C37.8542 6.73698 38.3333 7.15365 38.6719 7.67969C39.0104 8.20573 39.1797 8.79688 39.1797 9.45312H37.0391C37.0391 9.09896 36.9635 8.78646 36.8125 8.51562C36.6667 8.24479 36.4427 8.03125 36.1406 7.875C35.8438 7.71875 35.4688 7.64062 35.0156 7.64062C34.5781 7.64062 34.2135 7.70573 33.9219 7.83594C33.6354 7.96615 33.4193 8.14323 33.2734 8.36719C33.1328 8.59115 33.0625 8.84115 33.0625 9.11719C33.0625 9.32552 33.112 9.51302 33.2109 9.67969C33.3099 9.84115 33.4583 9.99479 33.6562 10.1406C33.8542 10.2812 34.099 10.4141 34.3906 10.5391C34.6875 10.6589 35.0312 10.7786 35.4219 10.8984C36.0469 11.0859 36.5938 11.2943 37.0625 11.5234C37.5365 11.7526 37.9297 12.013 38.2422 12.3047C38.5599 12.5964 38.7969 12.9245 38.9531 13.2891C39.1146 13.6536 39.1953 14.0677 39.1953 14.5312C39.1953 15.0208 39.099 15.4583 38.9062 15.8438C38.7135 16.2292 38.4375 16.5573 38.0781 16.8281C37.7188 17.099 37.2865 17.3047 36.7812 17.4453C36.2812 17.5859 35.7214 17.6562 35.1016 17.6562C34.5495 17.6562 34.0026 17.5833 33.4609 17.4375C32.9245 17.2865 32.4375 17.0625 32 16.7656C31.5625 16.4635 31.2135 16.0833 30.9531 15.625C30.6927 15.1615 30.5625 14.6198 30.5625 14H32.7188C32.7188 14.3594 32.776 14.6667 32.8906 14.9219C33.0104 15.1719 33.1771 15.3776 33.3906 15.5391C33.6094 15.6953 33.8646 15.8099 34.1562 15.8828C34.4479 15.9557 34.763 15.9922 35.1016 15.9922C35.5391 15.9922 35.8984 15.9323 36.1797 15.8125C36.4661 15.6875 36.6797 15.5156 36.8203 15.2969C36.9661 15.0781 37.0391 14.8281 37.0391 14.5469ZM42.7188 5.5V17.5H40.6484V5.5H42.7188ZM42.3906 12.9688H41.7812C41.7812 12.3802 41.8594 11.8385 42.0156 11.3438C42.1719 10.849 42.3932 10.4193 42.6797 10.0547C42.9661 9.6849 43.3073 9.39844 43.7031 9.19531C44.1042 8.99219 44.5469 8.89062 45.0312 8.89062C45.4479 8.89062 45.8255 8.95052 46.1641 9.07031C46.5078 9.1849 46.8021 9.36979 47.0469 9.625C47.2917 9.88021 47.4792 10.2135 47.6094 10.625C47.7448 11.0312 47.8125 11.526 47.8125 12.1094V17.5H45.7344V12.0938C45.7344 11.7031 45.6771 11.3958 45.5625 11.1719C45.4479 10.9427 45.2839 10.7786 45.0703 10.6797C44.862 10.5807 44.6042 10.5312 44.2969 10.5312C43.9635 10.5312 43.6771 10.5964 43.4375 10.7266C43.1979 10.8516 43 11.026 42.8438 11.25C42.6927 11.474 42.5781 11.7318 42.5 12.0234C42.4271 12.3151 42.3906 12.6302 42.3906 12.9688ZM49.2656 13.3594V13.1953C49.2656 12.5755 49.3542 12.0052 49.5312 11.4844C49.7083 10.9583 49.9661 10.5026 50.3047 10.1172C50.6432 9.73177 51.0573 9.43229 51.5469 9.21875C52.0365 9 52.5938 8.89062 53.2188 8.89062C53.8542 8.89062 54.4167 9 54.9062 9.21875C55.401 9.43229 55.8177 9.73177 56.1562 10.1172C56.4948 10.5026 56.7526 10.9583 56.9297 11.4844C57.1068 12.0052 57.1953 12.5755 57.1953 13.1953V13.3594C57.1953 13.974 57.1068 14.5443 56.9297 15.0703C56.7526 15.5911 56.4948 16.0469 56.1562 16.4375C55.8177 16.8229 55.4036 17.1224 54.9141 17.3359C54.4245 17.5495 53.8646 17.6562 53.2344 17.6562C52.6094 17.6562 52.0495 17.5495 51.5547 17.3359C51.0599 17.1224 50.6432 16.8229 50.3047 16.4375C49.9661 16.0469 49.7083 15.5911 49.5312 15.0703C49.3542 14.5443 49.2656 13.974 49.2656 13.3594ZM51.3281 13.1953V13.3594C51.3281 13.7292 51.3646 14.0755 51.4375 14.3984C51.5104 14.7214 51.6224 15.0052 51.7734 15.25C51.9245 15.4948 52.1198 15.6875 52.3594 15.8281C52.6042 15.9635 52.8958 16.0312 53.2344 16.0312C53.5677 16.0312 53.8542 15.9635 54.0938 15.8281C54.3333 15.6875 54.5286 15.4948 54.6797 15.25C54.8359 15.0052 54.9505 14.7214 55.0234 14.3984C55.0964 14.0755 55.1328 13.7292 55.1328 13.3594V13.1953C55.1328 12.8307 55.0964 12.4896 55.0234 12.1719C54.9505 11.849 54.8359 11.5651 54.6797 11.3203C54.5286 11.0703 54.3307 10.875 54.0859 10.7344C53.8464 10.5885 53.5573 10.5156 53.2188 10.5156C52.8854 10.5156 52.599 10.5885 52.3594 10.7344C52.1198 10.875 51.9245 11.0703 51.7734 11.3203C51.6224 11.5651 51.5104 11.849 51.4375 12.1719C51.3646 12.4896 51.3281 12.8307 51.3281 13.1953ZM60.7578 10.7734V17.5H58.6953V9.04688H60.6484L60.7578 10.7734ZM63.3281 8.99219L63.2969 10.9141C63.1823 10.8932 63.0521 10.8776 62.9062 10.8672C62.7656 10.8568 62.6328 10.8516 62.5078 10.8516C62.1901 10.8516 61.9115 10.8958 61.6719 10.9844C61.4323 11.0677 61.2318 11.1901 61.0703 11.3516C60.9141 11.513 60.7943 11.7109 60.7109 11.9453C60.6276 12.1745 60.5807 12.4349 60.5703 12.7266L60.125 12.6719C60.125 12.1354 60.1797 11.638 60.2891 11.1797C60.3984 10.7214 60.5573 10.3203 60.7656 9.97656C60.974 9.63281 61.2344 9.36719 61.5469 9.17969C61.8646 8.98698 62.2292 8.89062 62.6406 8.89062C62.7552 8.89062 62.8776 8.90104 63.0078 8.92188C63.1432 8.9375 63.25 8.96094 63.3281 8.99219ZM68.8516 9.04688V10.5312H64.0078V9.04688H68.8516ZM65.3047 6.96875H67.375V15.0625C67.375 15.3125 67.4089 15.5052 67.4766 15.6406C67.5443 15.776 67.6458 15.8672 67.7812 15.9141C67.9167 15.9609 68.0781 15.9844 68.2656 15.9844C68.401 15.9844 68.526 15.9766 68.6406 15.9609C68.7552 15.9453 68.8516 15.9297 68.9297 15.9141L68.9375 17.4609C68.7656 17.5182 68.5703 17.5651 68.3516 17.6016C68.138 17.638 67.8958 17.6562 67.625 17.6562C67.1615 17.6562 66.7552 17.5781 66.4062 17.4219C66.0573 17.2604 65.7865 17.0026 65.5938 16.6484C65.401 16.2891 65.3047 15.8151 65.3047 15.2266V6.96875ZM74.875 15.1875C74.875 15.0104 74.8281 14.8516 74.7344 14.7109C74.6406 14.5703 74.4635 14.4427 74.2031 14.3281C73.9479 14.2083 73.5729 14.0964 73.0781 13.9922C72.6406 13.8984 72.237 13.7812 71.8672 13.6406C71.4974 13.5 71.1797 13.3307 70.9141 13.1328C70.6484 12.9297 70.4401 12.6927 70.2891 12.4219C70.1432 12.1458 70.0703 11.8281 70.0703 11.4688C70.0703 11.1198 70.1458 10.7917 70.2969 10.4844C70.4479 10.1719 70.6667 9.89844 70.9531 9.66406C71.2396 9.42448 71.5885 9.23698 72 9.10156C72.4115 8.96094 72.875 8.89062 73.3906 8.89062C74.1094 8.89062 74.7266 9.00781 75.2422 9.24219C75.763 9.47656 76.1615 9.79948 76.4375 10.2109C76.7135 10.6172 76.8516 11.0755 76.8516 11.5859H74.7891C74.7891 11.362 74.737 11.1589 74.6328 10.9766C74.5339 10.7943 74.3802 10.6484 74.1719 10.5391C73.9635 10.4245 73.7005 10.3672 73.3828 10.3672C73.0964 10.3672 72.8542 10.4141 72.6562 10.5078C72.4635 10.6016 72.3177 10.724 72.2188 10.875C72.1198 11.026 72.0703 11.1927 72.0703 11.375C72.0703 11.5104 72.0964 11.6328 72.1484 11.7422C72.2057 11.8464 72.2969 11.9427 72.4219 12.0312C72.5469 12.1198 72.7161 12.2005 72.9297 12.2734C73.1484 12.3464 73.4167 12.4167 73.7344 12.4844C74.3646 12.6094 74.9141 12.776 75.3828 12.9844C75.8568 13.1875 76.2266 13.4583 76.4922 13.7969C76.7578 14.1354 76.8906 14.5677 76.8906 15.0938C76.8906 15.4688 76.8099 15.8125 76.6484 16.125C76.487 16.4323 76.2526 16.7005 75.9453 16.9297C75.638 17.1589 75.2708 17.3385 74.8438 17.4688C74.4167 17.5938 73.9349 17.6562 73.3984 17.6562C72.6224 17.6562 71.9661 17.5182 71.4297 17.2422C70.8932 16.9609 70.487 16.6068 70.2109 16.1797C69.9349 15.7474 69.7969 15.2995 69.7969 14.8359H71.7734C71.7891 15.1641 71.8776 15.4271 72.0391 15.625C72.2005 15.8229 72.4036 15.9661 72.6484 16.0547C72.8984 16.138 73.1615 16.1797 73.4375 16.1797C73.75 16.1797 74.013 16.138 74.2266 16.0547C74.4401 15.9661 74.6016 15.849 74.7109 15.7031C74.8203 15.5521 74.875 15.3802 74.875 15.1875Z" fill="#0F0F0F"/>
</svg>
