<svg width="90" height="21" viewBox="0 0 90 21" fill="none" xmlns="http://www.w3.org/2000/svg">
<path d="M28.3498 3.6915C28.0258 2.47651 27.0673 1.51801 25.8478 1.18951C23.6428 0.600006 14.7958 0.600006 14.7958 0.600006C14.7958 0.600006 5.95334 0.600006 3.74384 1.18951C2.52884 1.51351 1.57034 2.47201 1.24184 3.6915C0.652344 5.8965 0.652344 10.5 0.652344 10.5C0.652344 10.5 0.652344 15.1035 1.24184 17.3085C1.56584 18.5235 2.52434 19.482 3.74384 19.8105C5.95334 20.4 14.7958 20.4 14.7958 20.4C14.7958 20.4 23.6428 20.4 25.8478 19.8105C27.0628 19.4865 28.0213 18.528 28.3498 17.3085C28.9393 15.1035 28.9393 10.5 28.9393 10.5C28.9393 10.5 28.9393 5.8965 28.3498 3.6915Z" fill="#FF0000"/>
<path d="M11.9697 14.7435L19.3182 10.5L11.9697 6.2565V14.7435Z" fill="white"/>
<path d="M41.7101 18.6135C41.1521 18.2355 40.7516 17.6505 40.5176 16.854C40.2836 16.0575 40.1621 15 40.1621 13.677V11.877C40.1621 10.5405 40.2971 9.46951 40.5671 8.65951C40.8371 7.84951 41.2601 7.26001 41.8316 6.89101C42.4031 6.52201 43.1546 6.33301 44.0861 6.33301C45.0041 6.33301 45.7376 6.52201 46.2911 6.90001C46.8446 7.27801 47.2496 7.86751 47.5061 8.66851C47.7626 9.46951 47.8886 10.5405 47.8886 11.8725V13.6725C47.8886 14.9955 47.7626 16.0575 47.5151 16.8585C47.2676 17.6595 46.8626 18.249 46.3001 18.618C45.7421 18.987 44.9816 19.176 44.0231 19.176C43.0421 19.1805 42.2681 18.9915 41.7101 18.6135ZM44.8466 16.6695C44.9996 16.2645 45.0806 15.603 45.0806 14.6895V10.824C45.0806 9.933 45.0041 9.28501 44.8466 8.87101C44.6936 8.46151 44.4191 8.25451 44.0276 8.25451C43.6496 8.25451 43.3841 8.46151 43.2266 8.87101C43.0736 9.28051 42.9926 9.933 42.9926 10.824V14.6895C42.9926 15.6075 43.0646 16.269 43.2131 16.6695C43.3616 17.0745 43.6316 17.277 44.0231 17.277C44.4191 17.277 44.6891 17.0745 44.8466 16.6695Z" fill="#0F0F0F"/>
<path d="M84.6719 13.7085V14.334C84.6719 15.1305 84.6944 15.7245 84.7439 16.125C84.7889 16.521 84.8879 16.8135 85.0364 16.9935C85.1849 17.1735 85.4144 17.268 85.7249 17.268C86.1434 17.268 86.4314 17.106 86.5844 16.782C86.7374 16.458 86.8229 15.918 86.8364 15.162L89.2439 15.3015C89.2574 15.4095 89.2619 15.558 89.2619 15.747C89.2619 16.8945 88.9469 17.7495 88.3214 18.3165C87.6959 18.8835 86.8094 19.167 85.6619 19.167C84.2849 19.167 83.3219 18.735 82.7684 17.871C82.2149 17.007 81.9404 15.675 81.9404 13.866V11.7015C81.9404 9.83851 82.2284 8.48401 82.7999 7.62451C83.3714 6.76951 84.3524 6.34201 85.7429 6.34201C86.7014 6.34201 87.4349 6.51751 87.9479 6.86851C88.4609 7.21951 88.8209 7.76401 89.0324 8.50651C89.2394 9.24901 89.3474 10.275 89.3474 11.58V13.704H84.6719V13.7085ZM85.0274 8.48851C84.8879 8.66401 84.7934 8.95201 84.7439 9.34801C84.6944 9.74401 84.6719 10.3515 84.6719 11.157V12.048H86.7149V11.157C86.7149 10.3605 86.6879 9.75751 86.6339 9.34801C86.5799 8.93851 86.4809 8.64601 86.3414 8.47951C86.2019 8.31301 85.9814 8.22751 85.6844 8.22751C85.3874 8.22301 85.1669 8.31301 85.0274 8.48851Z" fill="#0F0F0F"/>
<path d="M34.9153 13.4745L31.7383 2.00401H34.5103L35.6218 7.20151C35.9053 8.48401 36.1123 9.57301 36.2473 10.4775H36.3283C36.4228 9.82951 36.6298 8.74501 36.9538 7.21951L38.1058 1.99951H40.8778L37.6648 13.4745V18.978H34.9153V13.4745Z" fill="#0F0F0F"/>
<path d="M56.9023 6.57602V18.9735H54.7198L54.4768 17.457H54.4183C53.8243 18.6045 52.9333 19.176 51.7498 19.176C50.9263 19.176 50.3188 18.906 49.9273 18.366C49.5358 17.826 49.3423 16.9845 49.3423 15.837V6.57602H52.1323V15.6795C52.1323 16.233 52.1908 16.629 52.3123 16.863C52.4338 17.097 52.6363 17.2185 52.9198 17.2185C53.1628 17.2185 53.3968 17.1465 53.6173 16.998C53.8378 16.8495 54.0043 16.6605 54.1123 16.431V6.57602H56.9023Z" fill="#0F0F0F"/>
<path d="M71.2212 6.57602V18.9735H69.0386L68.7957 17.457H68.7371C68.1431 18.6045 67.2521 19.176 66.0686 19.176C65.2451 19.176 64.6376 18.906 64.2461 18.366C63.8546 17.826 63.6611 16.9845 63.6611 15.837V6.57602H66.4511V15.6795C66.4511 16.233 66.5096 16.629 66.6311 16.863C66.7526 17.097 66.9551 17.2185 67.2386 17.2185C67.4816 17.2185 67.7156 17.1465 67.9361 16.998C68.1566 16.8495 68.3231 16.6605 68.4311 16.431V6.57602H71.2212Z" fill="#0F0F0F"/>
<path d="M64.4894 4.2495H61.7174V18.9735H58.9859V4.2495H56.2139V2.004H64.4849V4.2495H64.4894Z" fill="#0F0F0F"/>
<path d="M80.4598 8.56051C80.2888 7.77751 80.0188 7.21051 79.6408 6.85951C79.2628 6.50851 78.7453 6.33301 78.0838 6.33301C77.5708 6.33301 77.0938 6.47701 76.6483 6.76951C76.2028 7.05751 75.8608 7.44001 75.6178 7.91251H75.5953V1.37851H72.9043V18.978H75.2083L75.4918 17.8035H75.5503C75.7663 18.222 76.0903 18.5505 76.5223 18.7935C76.9543 19.0365 77.4313 19.158 77.9578 19.158C78.9028 19.158 79.5958 18.7215 80.0413 17.853C80.4868 16.9845 80.7073 15.6255 80.7073 13.776V11.814C80.7118 10.428 80.6263 9.34351 80.4598 8.56051ZM77.8993 13.6185C77.8993 14.523 77.8633 15.2295 77.7868 15.7425C77.7148 16.2555 77.5888 16.62 77.4133 16.836C77.2378 17.052 77.0038 17.16 76.7068 17.16C76.4773 17.16 76.2658 17.106 76.0678 16.998C75.8743 16.89 75.7123 16.728 75.5908 16.512V9.46951C75.6853 9.13201 75.8473 8.85751 76.0768 8.64151C76.3063 8.42551 76.5538 8.31751 76.8238 8.31751C77.1073 8.31751 77.3278 8.43001 77.4808 8.65051C77.6338 8.87101 77.7418 9.24901 77.8048 9.77101C77.8633 10.2975 77.8948 11.0445 77.8948 12.0165V13.6185H77.8993Z" fill="#0F0F0F"/>
</svg>
