<svg width="20" height="18" viewBox="0 0 20 18" fill="none" xmlns="http://www.w3.org/2000/svg">
<path d="M8.47386 11.7135L8.61174 11.1034H7.98616H1.92207C1.11378 11.1034 0.518732 10.5118 0.500445 9.86563L0.505071 9.83159L0.540201 9.57302L0.500012 9.53604V8.06667C0.500012 7.91237 0.531097 7.7687 0.591648 7.62408L3.49014 1.39887L3.49016 1.39888L3.49233 1.3941C3.69404 0.948713 4.18986 0.609138 4.80515 0.609138H13.4544C14.2755 0.609138 14.8765 1.21945 14.8765 1.87748V10.7192C14.8765 11.0549 14.732 11.3641 14.476 11.5933L14.4759 11.5933L14.4706 11.5982L8.48403 17.1144L7.80574 16.4962C7.80548 16.496 7.80522 16.4957 7.80496 16.4955C7.64485 16.3478 7.55107 16.1508 7.5447 15.9489L7.56754 15.7247L8.47386 11.7135Z" stroke="black"/>
<path d="M14.9527 10.6695H18.6733L18.6733 0.567076H14.8841M12.0487 0.567076H14.8841M14.8841 1.72773V0.567076" stroke="black"/>
</svg>
