<svg width="29" height="21" viewBox="0 0 29 21" fill="none" xmlns="http://www.w3.org/2000/svg">
<path d="M28.3498 3.6915C28.0258 2.47651 27.0673 1.51801 25.8478 1.18951C23.6428 0.600006 14.7958 0.600006 14.7958 0.600006C14.7958 0.600006 5.95334 0.600006 3.74384 1.18951C2.52884 1.51351 1.57034 2.47201 1.24184 3.6915C0.652344 5.8965 0.652344 10.5 0.652344 10.5C0.652344 10.5 0.652344 15.1035 1.24184 17.3085C1.56584 18.5235 2.52434 19.482 3.74384 19.8105C5.95334 20.4 14.7958 20.4 14.7958 20.4C14.7958 20.4 23.6428 20.4 25.8478 19.8105C27.0628 19.4865 28.0213 18.528 28.3498 17.3085C28.9393 15.1035 28.9393 10.5 28.9393 10.5C28.9393 10.5 28.9393 5.8965 28.3498 3.6915Z" fill="#FF0000"/>
<path d="M11.9697 14.7435L19.3182 10.5L11.9697 6.2565V14.7435Z" fill="white"/>
</svg>
